<?xml version="1.0" encoding="utf-8"?>
<!-- Generator: Adobe Illustrator 23.0.1, SVG Export Plug-In . SVG Version: 6.00 Build 0)  -->
<svg version="1.1" id="Layer_1" xmlns="http://www.w3.org/2000/svg" xmlns:xlink="http://www.w3.org/1999/xlink" x="0px" y="0px"
	 viewBox="0 0 84 20" style="enable-background:new 0 0 84 20;" xml:space="preserve">
<style type="text/css">
	.st0{fill:#004BB1;}
	.st1{fill:#FFFFFF;}
</style>
<g>
	<rect x="0.5" y="3.5" class="st0" width="13" height="13"/>
	<path class="st0" d="M13,4v12H1V4H13 M14,3H0v14h14V3L14,3z"/>
</g>
<g>
	<rect x="18" y="3.5" class="st0" width="13" height="13"/>
	<path class="st0" d="M30.5,4v12h-12V4H30.5 M31.5,3h-14v14h14V3L31.5,3z"/>
</g>
<g>
	<rect x="35.5" y="3.5" class="st0" width="13" height="13"/>
	<g>
		<path class="st0" d="M48,4v12H36V4H48 M49,3H35v14h14V3L49,3z"/>
	</g>
</g>
<g>
	<rect x="53" y="3.5" class="st0" width="13" height="13"/>
	<g>
		<path class="st0" d="M65.5,4v12h-12V4H65.5 M66.5,3h-14v14h14V3L66.5,3z"/>
	</g>
</g>
<g>
	<rect x="70.5" y="3.5" class="st1" width="13" height="13"/>
	<path class="st0" d="M83,4v12H71V4H83 M84,3H70v14h14V3L84,3z"/>
</g>
</svg>
